<svg width="1685" height="420" viewBox="0 0 1685 420" fill="none" xmlns="http://www.w3.org/2000/svg">
<g clip-path="url(#clip0_1_34)">
<path fill-rule="evenodd" clip-rule="evenodd" d="M80 105.4H334.944V132.237H80V105.4ZM80 191.996H241.616V219.311H80V191.996ZM334.944 278.494H80V305.33H334.944V278.494Z" fill="#AD56FF" fill-opacity="0.22"/>
<path fill-rule="evenodd" clip-rule="evenodd" d="M287.951 115.739L247.712 75.5L219.031 104.181H175.098L146.417 75.5L106.178 115.739L134.631 144.193V177.604L106.178 206.058L134.631 234.511V264.103L106.178 292.556L146.417 332.796L174.263 304.95H218.222L247.712 334.44L287.951 294.2L247.712 253.961L223.811 277.862H171.962L157.394 263.294V235.321L173.808 218.906H242.527V191.818H172.417L157.394 176.795V145.002L169.534 132.862H224.595L247.712 155.979L287.951 115.739Z" fill="url(#paint0_linear_1_34)"/>
<path fill-rule="evenodd" clip-rule="evenodd" d="M473.188 105.774V293.158H608.372V263.712H503.972V212.851H588.295V183.405H503.972V135.221H608.372V105.774H473.188ZM628.543 156.636V293.158H656.65V219.543C656.65 207.586 660.13 197.95 667.09 190.633C674.229 183.137 683.241 179.39 694.127 179.39C705.013 179.39 713.044 182.245 718.22 187.956C723.573 193.488 726.25 202.233 726.25 214.189V293.158H754.358V211.513C754.358 192.774 749.629 178.497 740.17 168.682C731.108 159.097 718.386 154.192 702.006 153.967L702.223 153.736H677.525L656.65 173.915V156.636H628.543ZM769.07 182.066V156.636H785.132V127.19H813.24V156.636H854.732V182.066H813.24V267.728H856.07V293.158H785.132V182.066H769.07ZM866.778 224.897C866.778 244.885 873.47 261.749 886.855 275.491C900.418 289.054 916.925 295.835 936.378 295.835C957.793 295.835 975.817 288.518 990.451 273.885C996.162 267.817 1000.89 260.411 1004.64 251.666H975.193C972.694 255.414 969.75 258.537 966.359 261.035C958.864 267.282 948.87 270.405 936.378 270.405C926.205 270.405 917.282 267.192 909.608 260.768C901.935 254.343 897.027 245.509 894.885 234.266H1005.98V224.897C1005.98 204.909 999.196 188.134 985.633 174.571C972.248 160.83 955.83 153.959 936.378 153.959C916.925 153.959 900.418 160.83 886.855 174.571C873.47 188.134 866.778 204.909 866.778 224.897ZM963.682 188.759C970.642 195.005 974.925 202.589 976.531 211.513H896.224C898.365 201.697 903.184 193.934 910.679 188.223C918.175 182.334 926.741 179.39 936.378 179.39C947.799 179.39 956.901 182.513 963.682 188.759ZM1024.74 156.636H1052.84V173.581L1071.1 155.33H1089.85C1090.45 155.308 1091.05 155.297 1091.66 155.297H1107.72V182.066H1090.32C1079.44 182.066 1070.42 185.546 1063.28 192.506C1056.32 199.288 1052.84 208.3 1052.84 219.543V293.158H1024.74V156.636ZM1123.69 156.636V344.02H1151.8V275.758H1153.13C1156.17 279.506 1159.83 282.897 1164.11 285.931C1173.57 292.534 1184.19 295.835 1195.97 295.835C1214.35 295.835 1229.6 289.322 1241.74 276.294C1254.05 263.088 1260.21 245.955 1260.21 224.897C1260.21 203.839 1254.05 186.796 1241.74 173.768C1229.6 160.562 1214.35 153.959 1195.97 153.959C1184.37 153.959 1173.75 157.35 1164.11 164.131C1160.01 166.987 1156.35 170.288 1153.13 174.036H1151.8V156.636H1123.69ZM1151.8 224.897C1151.8 210.442 1155.28 199.288 1162.24 191.436C1169.37 183.405 1178.83 179.39 1190.61 179.39C1203.1 179.39 1212.92 183.316 1220.06 191.168C1227.2 199.02 1230.76 210.263 1230.76 224.897C1230.76 239.531 1227.2 250.774 1220.06 258.626C1212.92 266.479 1203.1 270.405 1190.61 270.405C1178.83 270.405 1169.37 266.479 1162.24 258.626C1155.28 250.595 1151.8 239.352 1151.8 224.897ZM1278.84 156.636H1306.95V172.824L1324.45 155.33H1343.96C1344.56 155.308 1345.16 155.297 1345.77 155.297H1361.83V182.066H1344.43C1333.54 182.066 1324.53 185.546 1317.39 192.506C1310.43 199.288 1306.95 208.3 1306.95 219.543V293.158H1278.84V156.636ZM1369.77 224.897C1369.77 244.885 1376.46 261.749 1389.84 275.491C1403.41 289.054 1419.91 295.835 1439.37 295.835C1460.78 295.835 1478.81 288.518 1493.44 273.885C1499.15 267.817 1503.88 260.411 1507.63 251.666H1478.18C1475.68 255.414 1472.74 258.537 1469.35 261.035C1461.85 267.282 1451.86 270.405 1439.37 270.405C1429.19 270.405 1420.27 267.192 1412.6 260.768C1404.92 254.343 1400.01 245.509 1397.87 234.266H1508.97V224.897C1508.97 204.909 1502.18 188.134 1488.62 174.571C1475.24 160.83 1458.82 153.959 1439.37 153.959C1419.91 153.959 1403.41 160.83 1389.84 174.571C1376.46 188.134 1369.77 204.909 1369.77 224.897ZM1479.52 211.513H1399.21C1401.35 201.697 1406.17 193.934 1413.67 188.223C1421.16 182.334 1429.73 179.39 1439.37 179.39C1450.79 179.39 1459.89 182.513 1466.67 188.759C1473.63 195.005 1477.91 202.589 1479.52 211.513ZM1517.02 182.066V156.636H1533.08H1561.19H1602.68V182.066H1561.19V267.728H1604.02V293.158H1533.08V182.066H1517.02ZM1564.09 138.913L1547.84 122.665L1531.59 138.913L1547.84 155.162L1564.09 138.913Z" fill="white"/>
</g>
<defs>
<linearGradient id="paint0_linear_1_34" x1="140.5" y1="75.5" x2="278.5" y2="354.5" gradientUnits="userSpaceOnUse">
<stop stop-color="#E43EFF"/>
<stop offset="1" stop-color="#785BEF"/>
</linearGradient>
<clipPath id="clip0_1_34">
<rect width="1525" height="269" fill="white" transform="translate(80 75.5)"/>
</clipPath>
</defs>
</svg>
