<svg width="278" height="98" viewBox="0 0 278 98" fill="none" xmlns="http://www.w3.org/2000/svg">
<path d="M267.259 63.8781C266.839 63.8781 266.42 64.1778 266.24 64.7172C263.603 72.3289 259.947 76.824 257.01 76.824C255.332 76.824 254.613 74.9061 254.613 71.9093C254.613 64.4774 259.048 48.7146 261.325 41.4625C261.565 40.6234 261.745 39.8443 261.745 39.185C261.745 37.0873 260.606 36.0684 257.729 36.0684C254.673 36.0684 251.376 37.2671 248.2 42.841C247.121 37.9263 243.764 35.7087 239.09 35.7087C233.695 35.7087 228.481 39.185 224.166 44.8188C219.85 50.4527 214.876 52.3107 211.04 51.3517C213.797 44.699 214.756 39.7244 214.756 35.9485C214.756 30.1348 211.879 26.6586 207.264 26.6586C200.192 26.6586 196.116 33.3713 196.116 40.5035C196.116 45.9576 198.574 51.5915 204.028 54.3485C199.413 64.7172 192.76 74.067 190.243 74.067C186.946 74.067 185.987 58.0644 186.167 46.6169C186.287 40.0241 186.826 39.6644 186.826 37.6866C186.826 36.5478 186.107 35.7687 183.11 35.7687C176.158 35.7687 174 41.6423 173.701 48.355C173.641 50.9322 173.161 53.4494 172.502 55.9667C169.685 66.3354 163.692 74.1869 159.796 74.1869C157.998 74.1869 157.518 72.3888 157.518 70.0514C157.518 62.6195 161.654 53.2696 161.654 45.3582C161.654 39.4846 159.077 35.8286 154.282 35.8286C148.588 35.8286 141.096 42.6012 133.964 55.2475C136.301 45.538 137.26 36.1882 130.308 36.1882C128.81 36.2482 127.311 36.6078 125.993 37.327C125.094 37.7465 124.494 38.6456 124.614 39.7244C125.273 50.0332 116.283 76.4644 107.832 76.4644C106.274 76.4644 105.555 74.7862 105.555 72.0891C105.555 64.6572 109.99 48.8944 112.208 41.7022C112.507 40.7433 112.627 39.9641 112.627 39.3048C112.627 37.327 111.429 36.3081 108.612 36.3081C105.555 36.3081 102.258 37.5068 99.0819 43.0807C97.9432 38.1661 94.6468 35.9485 89.9119 35.9485C82.2403 35.9485 73.7295 44.0397 69.9536 54.5882C64.9191 68.6729 54.7902 82.2781 41.125 82.2781C28.7185 82.2781 22.1856 71.9693 22.1856 55.667C22.1856 32.1127 39.4469 12.9335 52.2729 12.9335C58.3862 12.9335 61.323 16.8293 61.323 22.8228C61.323 30.0749 57.3074 33.4312 57.3074 36.1882C57.3074 37.0273 58.0266 37.8664 59.4051 37.8664C64.9791 37.8664 71.5119 31.3335 71.5119 22.4032C71.5119 13.473 64.2598 7 51.4338 7C30.2768 7 9 28.2768 9 55.5472C9 77.2435 19.7283 90.3692 38.2482 90.3692C50.8944 90.3692 61.9224 80.5399 67.8559 69.0924C68.5751 78.5621 72.8305 83.5367 79.4233 83.5367C85.2969 83.5367 89.9719 80.0605 93.6279 73.9471C95.0064 80.3601 98.7223 83.4767 103.517 83.4767C109.031 83.4767 113.586 80.0005 117.961 73.5276C117.901 78.622 119.04 83.4168 123.475 83.4168C125.573 83.4168 128.03 82.9373 128.45 81.1393C133.065 61.9602 144.572 46.3172 148.049 46.3172C149.068 46.3172 149.367 47.3361 149.367 48.4749C149.367 53.6892 145.711 64.3576 145.711 71.1901C145.711 78.5621 148.828 83.4767 155.301 83.4767C162.493 83.4767 169.745 74.6663 174.6 61.8403C176.098 73.8272 179.394 83.4767 184.549 83.4767C190.902 83.4767 202.11 70.1712 208.882 56.0866C211.52 56.4462 215.535 56.3263 219.431 53.6292C217.813 57.7647 216.854 62.3198 216.854 66.8149C216.854 79.8807 223.087 83.5367 228.481 83.5367C234.355 83.5367 239.03 80.0605 242.686 73.9471C243.884 79.5211 246.941 83.4767 252.575 83.4767C261.385 83.4767 268.997 74.4865 268.997 67.1146C269.057 65.0169 268.218 63.8781 267.259 63.8781ZM84.8774 76.1647C81.3412 76.1647 79.9627 72.5686 79.9627 67.2944C79.9627 58.0045 86.3158 42.6012 93.0285 42.6012C95.9054 42.6012 97.0441 46.0175 97.0441 50.2729C97.0441 59.6227 90.9907 76.1647 84.8774 76.1647ZM206.425 48.5947C204.327 46.0775 203.548 42.6612 203.548 39.6045C203.548 35.8286 204.927 32.6521 206.605 32.6521C208.283 32.6521 208.763 34.2703 208.763 36.5478C208.703 40.2638 207.384 45.7778 206.425 48.5947ZM233.935 76.1647C230.399 76.1647 229.02 72.0292 229.02 67.2944C229.02 58.3641 235.374 42.6012 242.086 42.6012C245.023 42.6012 246.042 46.0175 246.042 50.2729C246.042 59.6227 240.108 76.1647 233.935 76.1647Z" fill="#D9D7E6"/>
</svg>
