<svg width="278" height="98" viewBox="0 0 278 98" fill="none" xmlns="http://www.w3.org/2000/svg">
<g clip-path="url(#clip0_2231_289)">
<path d="M82.6317 38.3514C81.4352 38.9991 80.1945 39.5619 78.9186 40.0356C76.1646 41.0243 73.3171 41.5366 70.4038 41.7282C69.7733 41.7681 69.1418 41.8112 68.5092 41.8225C68.1929 41.8225 68.0749 41.9474 68.0985 42.2507C68.1118 42.4033 68.0985 42.558 68.0985 42.7107V69.3238C68.0985 70.0778 68.0985 70.0789 67.3458 70.0789C64.1297 70.0789 60.9135 70.0676 57.6932 70.0911C57.1685 70.0911 57.0371 69.9395 57.0381 69.4272C57.0525 60.4886 57.0559 51.5496 57.0484 42.6103C57.0484 41.8839 57.0484 41.8787 56.3141 41.8818C51.4725 41.9065 46.6308 41.8081 41.7911 41.9402C40.1472 41.978 38.5209 42.2871 36.9782 42.8551C33.9346 43.9954 32.2834 46.2822 31.5584 49.3547C31.1775 50.9766 31.0789 52.6271 31.0717 54.2807C31.0512 59.3131 31.0645 64.3456 31.0635 69.3781C31.0635 70.0768 31.0635 70.0789 30.3622 70.0789C27.1285 70.0789 23.8929 70.0686 20.6623 70.0911C20.1376 70.0911 20 69.9354 20 69.4231C20.0123 48.1669 20.0161 26.9108 20.0113 5.65462C20.0113 4.97638 20.0113 4.96819 20.6942 4.96819C23.9281 4.96819 27.1614 4.96819 30.3939 4.96819C31.0624 4.96819 31.0635 4.97433 31.0635 5.66077C31.0635 15.1636 31.0635 24.6657 31.0635 34.1672V34.7614C31.2617 34.872 31.3459 34.7235 31.4465 34.6517C34.3351 32.6027 37.5728 31.4532 41.0539 30.9173C43.0049 30.6182 44.9621 30.526 46.9296 30.528C50.0609 30.5328 53.1918 30.5328 56.3224 30.528C57.0546 30.528 57.0556 30.528 57.0556 29.8109V5.76117C57.0556 4.96921 57.0556 4.96716 57.8247 4.96716C61.023 4.96716 64.222 4.96716 67.4218 4.96716C68.0995 4.96716 68.1016 4.96716 68.1016 5.6495V29.8057C68.1016 30.528 68.1016 30.5342 68.8265 30.5229C70.8947 30.5035 72.9607 30.5516 75.0257 30.3262C79.3252 29.858 82.4387 27.729 84.3302 23.8564C84.5797 23.344 84.8005 23.302 85.2985 23.4978C87.9222 24.5274 90.5592 25.5253 93.1991 26.5139C93.6051 26.6656 93.7798 26.85 93.7783 27.3141C93.7647 41.3542 93.7647 55.3939 93.7783 69.4333C93.7783 69.962 93.6194 70.0891 93.1118 70.086C89.8784 70.0645 86.6427 70.0757 83.4122 70.0747C82.7232 70.0747 82.7211 70.0747 82.7211 69.3576C82.7211 59.2585 82.7211 49.1594 82.7211 39.0603C82.7201 38.8513 82.7724 38.6269 82.6317 38.3514Z" fill="#D9D7E6"/>
<path d="M191.179 66.3865C191.033 66.3485 190.956 66.4582 190.871 66.5289C187.56 69.1486 183.786 70.5922 179.575 70.9128C175.126 71.252 170.84 70.6004 166.807 68.6507C161.071 65.8762 157.459 61.2967 155.626 55.2653C154.581 51.8188 154.3 48.2862 154.563 44.6963C154.855 40.7088 155.856 36.9375 157.93 33.4941C161.132 28.1819 165.874 25.0141 171.884 23.6586C173.954 23.1911 176.075 22.987 178.195 23.0511C183.552 23.2109 188.239 25.0285 192.161 28.7188C192.258 28.812 192.361 28.8991 192.502 29.0262C192.746 28.4381 192.749 27.8408 192.854 27.2691C193.027 26.3317 193.162 25.388 193.298 24.4435C193.356 24.0337 193.503 23.839 193.977 23.8431C196.611 23.8697 199.245 23.8656 201.884 23.8431C202.348 23.8431 202.501 23.9712 202.501 24.4455C202.513 40.2754 202.603 56.1033 202.536 71.9343C202.51 78.6543 199.969 84.3559 194.708 88.7046C191.833 91.0826 188.484 92.5119 184.845 93.2519C179.852 94.2669 174.853 94.347 169.933 92.8805C163.247 90.8883 158.356 86.751 155.384 80.4194C155.141 79.8915 154.947 79.3429 154.803 78.7801C154.729 78.5022 154.803 78.3479 155.112 78.2679C158.192 77.4243 161.27 76.5707 164.344 75.7064C164.592 75.6371 164.72 75.6757 164.796 75.94C165.75 79.2665 168.037 81.4051 171.089 82.7973C173.437 83.8681 175.936 84.1459 178.504 83.9774C180.722 83.8324 182.88 83.4431 184.9 82.4859C188.845 80.6173 191.043 77.53 191.239 73.1494C191.333 71.0204 191.27 68.8853 191.275 66.7533C191.263 66.6375 191.303 66.49 191.179 66.3865ZM191.55 46.6132C191.575 45.855 191.459 44.7208 191.22 43.601C190.353 39.5562 188.192 36.4775 184.372 34.7102C181.599 33.4275 178.667 33.2134 175.696 33.7533C171.631 34.493 168.568 36.6722 166.816 40.4394C165.008 44.3264 164.925 48.363 166.316 52.3884C167.558 55.9855 170.037 58.4515 173.642 59.7414C175.838 60.5272 178.11 60.683 180.42 60.4043C184.127 59.9566 187.141 58.305 189.262 55.1936C190.935 52.7316 191.551 49.9501 191.551 46.6172L191.55 46.6132Z" fill="#D9D7E6"/>
<path d="M221.307 50.9438C221.549 52.0842 221.981 53.1761 222.584 54.1741C224.541 57.4741 227.474 59.4135 231.21 60.099C234.804 60.7587 238.331 60.4975 241.684 58.9412C243.651 58.0294 245.269 56.636 246.769 55.0983C246.91 54.9548 247.02 54.7714 247.266 54.6946L254.445 62.0415C254.569 62.0937 254.445 62.1767 254.355 62.272C250.733 66.0904 246.476 68.8422 241.274 70.001C237.998 70.7243 234.634 70.9612 231.289 70.7038C227.53 70.4282 223.992 69.4201 220.757 67.4714C215.639 64.3866 212.469 59.85 210.928 54.1372C210.215 51.4637 209.91 48.6981 210.026 45.9339C210.215 40.8481 211.511 36.0984 214.588 31.9563C217.771 27.6635 222.059 25.0007 227.233 23.7877C232.496 22.5583 237.735 22.7632 242.841 24.5582C250.272 27.1666 254.897 32.3968 256.845 39.9732C257.72 43.3716 257.944 46.8272 257.391 50.3158C257.313 50.8076 257.143 50.9541 256.646 50.953C245.115 50.9394 233.584 50.9363 222.054 50.9438H221.307ZM221.556 41.9434H246.058C246.145 41.7907 246.078 41.6974 246.045 41.6052C244.903 38.3954 242.832 36.0093 239.711 34.5811C237.166 33.4152 234.48 33.1816 231.734 33.533C228.632 33.9285 225.984 35.2368 223.93 37.6198C222.841 38.8784 222.032 40.353 221.556 41.9465V41.9434Z" fill="#D9D7E6"/>
<path d="M115.478 28.5969C115.821 28.2896 116.167 27.9689 116.527 27.6626C119.346 25.2529 122.558 23.5983 126.258 23.1956C131.755 22.5973 136.624 24.1177 140.601 28.0519C143.654 31.0712 145.304 34.8229 146.113 38.9836C146.499 40.9671 146.59 42.973 146.59 44.9873C146.59 53.0715 146.59 61.1564 146.59 69.2419C146.59 70.0789 146.59 70.08 145.755 70.08H136.205C135.416 70.08 135.414 70.08 135.414 69.3023C135.414 61.3022 135.414 53.3023 135.414 45.3028C135.414 43.4208 135.293 41.5582 134.749 39.7407C133.655 36.0791 130.831 33.8292 127.015 33.5188C125.416 33.3897 123.832 33.3978 122.278 33.7769C119.087 34.5525 117.169 36.6394 116.233 39.712C115.675 41.5449 115.569 43.428 115.569 45.3254C115.569 53.275 115.569 61.2237 115.569 69.1712C115.569 70.2982 115.523 70.0748 114.644 70.0769C111.481 70.0861 108.316 70.0769 105.151 70.0769C104.479 70.0769 104.477 70.0769 104.477 69.3945C104.477 54.4522 104.477 39.5102 104.477 24.5685C104.477 23.8615 104.477 23.8595 105.177 23.8595H114.054C114.818 23.8595 114.808 23.8595 114.888 24.6034C115.024 25.8563 115.173 27.1073 115.316 28.3593C115.318 28.4099 115.335 28.459 115.362 28.501C115.391 28.5431 115.431 28.5763 115.478 28.5969Z" fill="#D9D7E6"/>
<path d="M82.1017 10.6134C82.113 6.91177 85.0868 3.98368 88.8205 4.00007C92.4812 4.01544 95.4223 7.01012 95.408 10.6984C95.3958 12.4589 94.6834 14.1426 93.4277 15.3791C92.1719 16.6156 90.4746 17.3035 88.7101 17.2918C86.9456 17.2799 85.2581 16.5692 84.0188 15.316C82.7795 14.0629 82.0899 12.3697 82.1017 10.6093V10.6134Z" fill="#D9D7E6"/>
</g>
<defs>
<clipPath id="clip0_2231_289">
<rect width="237.692" height="90" fill="white" transform="translate(20 4)"/>
</clipPath>
</defs>
</svg>
