<svg width="278" height="98" viewBox="0 0 278 98" fill="none" xmlns="http://www.w3.org/2000/svg">
<g clip-path="url(#clip0_1602_304)">
<path fill-rule="evenodd" clip-rule="evenodd" d="M12.7253 26.0506C12.3687 26.4425 12.3923 27.0438 12.767 27.4185L59.0683 73.7199C59.443 74.0945 60.0443 74.1181 60.4362 73.7615C67.2253 67.5838 71.4868 58.6768 71.4868 48.7744C71.4868 30.1214 56.3655 15 37.7124 15C27.8101 15 18.903 19.2615 12.7253 26.0506ZM6.93836 34.8378C6.76726 35.2151 6.85353 35.6574 7.14642 35.9503L50.5365 79.3404C50.8294 79.6333 51.2717 79.7195 51.649 79.5485C52.6514 79.0938 53.6275 78.5916 54.5747 78.0448C55.1377 77.7198 55.2239 76.9516 54.7642 76.492L9.99484 31.7226C9.53518 31.2629 8.76705 31.3492 8.44204 31.9121C7.8952 32.8593 7.39301 33.8355 6.93836 34.8378ZM4.30602 47.2623C4.10286 47.0591 3.99476 46.7791 4.01389 46.4925C4.10346 45.1498 4.2715 43.8287 4.51344 42.5336C4.65852 41.757 5.60743 41.4875 6.16605 42.0461L44.4407 80.3208C44.9993 80.8794 44.7298 81.8283 43.9532 81.9734C42.6581 82.2154 41.337 82.3834 39.9944 82.4729C39.7077 82.492 39.4277 82.384 39.2245 82.1808L4.30602 47.2623ZM6.65484 56.6873C5.9575 55.9899 4.83215 56.5908 5.08754 57.5434C8.19906 69.1487 17.3381 78.2878 28.9435 81.3993C29.896 81.6547 30.4969 80.5293 29.7996 79.832L6.65484 56.6873ZM140.081 33.5861C142.502 33.5861 144.465 31.6165 144.465 29.1868C144.465 26.7572 142.502 24.7875 140.081 24.7875C137.661 24.7875 135.698 26.7572 135.698 29.1868C135.698 31.6165 137.661 33.5861 140.081 33.5861ZM102.537 71.9529V24.7901H110.327V65.0525H131.329V71.9529H102.537ZM157.979 52.7079V71.9529H150.442V38.5275H157.884V44.2566L157.979 44.1933C158.736 42.3997 159.955 40.9014 161.637 39.6986C163.319 38.4747 165.463 37.8627 168.071 37.8627C170.383 37.8627 172.485 38.3798 174.378 39.4137C176.27 40.4266 177.783 41.9143 178.919 43.8768C180.054 45.8393 180.622 48.2449 180.622 51.0936V71.9529H173.085V52.1382C173.085 49.606 172.412 47.6857 171.066 46.3774C169.742 45.048 167.965 44.3832 165.737 44.3832C164.307 44.3832 163.004 44.6787 161.826 45.2695C160.649 45.8604 159.714 46.7677 159.02 47.9916C158.326 49.2156 157.979 50.7876 157.979 52.7079ZM226.225 71.3831C227.949 72.1217 229.925 72.491 232.153 72.491C233.983 72.491 235.549 72.2588 236.852 71.7946C238.156 71.3092 239.228 70.6656 240.069 69.8637C240.931 69.0619 241.614 68.1862 242.119 67.2366H242.245V71.9529H249.467V48.9412C249.467 47.3164 249.151 45.8287 248.521 44.4782C247.89 43.1277 246.976 41.9565 245.777 40.9648C244.6 39.9729 243.17 39.2133 241.488 38.6858C239.806 38.137 237.914 37.8627 235.812 37.8627C232.932 37.8627 230.44 38.3586 228.337 39.3504C226.256 40.3211 224.627 41.6294 223.449 43.2754C222.272 44.9213 221.631 46.7783 221.525 48.8463H228.811C228.894 47.8756 229.231 47.0104 229.82 46.2507C230.408 45.4911 231.208 44.9002 232.217 44.4782C233.226 44.0351 234.392 43.8135 235.717 43.8135C237.042 43.8135 238.166 44.0351 239.092 44.4782C240.037 44.9213 240.763 45.5228 241.267 46.2824C241.772 47.0421 242.024 47.9283 242.024 48.9412V49.1945C242.024 49.9541 241.761 50.5133 241.236 50.8721C240.731 51.2308 239.869 51.4946 238.65 51.6634C237.451 51.8322 235.812 52.0327 233.73 52.2648C232.027 52.4547 230.387 52.7396 228.811 53.1194C227.234 53.4992 225.825 54.0585 224.584 54.797C223.365 55.5356 222.398 56.5168 221.683 57.7407C220.968 58.9646 220.611 60.5367 220.611 62.457C220.611 64.6727 221.116 66.5296 222.125 68.0279C223.134 69.505 224.501 70.6234 226.225 71.3831ZM238.429 65.7805C237.21 66.4347 235.706 66.7618 233.92 66.7618C232.111 66.7618 230.671 66.382 229.599 65.6223C228.526 64.8415 227.991 63.7758 227.991 62.4254C227.991 61.3703 228.285 60.5156 228.873 59.8615C229.484 59.2073 230.282 58.6903 231.27 58.3105C232.259 57.9306 233.33 57.6669 234.487 57.5191C235.328 57.3926 236.148 57.2659 236.947 57.1393C237.746 56.9916 238.492 56.8545 239.186 56.7278C239.88 56.5801 240.469 56.4324 240.952 56.2847C241.457 56.137 241.825 55.9787 242.055 55.8099V59.5449C242.055 60.8532 241.751 62.0561 241.141 63.1534C240.552 64.2296 239.648 65.1053 238.429 65.7805ZM256.043 71.9529V38.5275H263.296V44.0351H263.391C264 42.1359 264.957 40.6904 266.26 39.6986C267.585 38.6858 269.319 38.1793 271.464 38.1793C271.99 38.1793 272.463 38.2004 272.883 38.2426C273.325 38.2637 273.693 38.2848 273.987 38.3059V45.1112C273.714 45.069 273.23 45.0163 272.536 44.953C271.843 44.8897 271.107 44.858 270.329 44.858C269.088 44.858 267.953 45.1429 266.923 45.7126C265.892 46.2824 265.072 47.1582 264.463 48.3398C263.874 49.5005 263.58 50.967 263.58 52.7396V71.9529H256.043ZM136.297 71.9529V38.5275H143.834V71.9529H136.297ZM193.158 70.4652C195.576 71.9634 198.446 72.7125 201.767 72.7125C204.332 72.7125 206.666 72.2482 208.769 71.3198C210.892 70.3702 212.658 69.0724 214.067 67.4265C215.475 65.7595 216.39 63.8392 216.81 61.6657H209.715C209.399 62.6574 208.884 63.5332 208.169 64.2928C207.476 65.0314 206.603 65.6117 205.552 66.0338C204.501 66.4558 203.281 66.6668 201.894 66.6668C200.023 66.6668 198.414 66.2448 197.069 65.4007C195.744 64.5566 194.735 63.3855 194.041 61.8873C193.412 60.5082 193.067 58.9467 193.009 57.2026H217.252V55.1768C217.252 52.6024 216.873 50.2601 216.117 48.1499C215.36 46.0186 214.287 44.1827 212.9 42.6423C211.512 41.0808 209.841 39.878 207.886 39.0339C205.951 38.1898 203.797 37.7678 201.421 37.7678C198.33 37.7678 195.597 38.5169 193.221 40.0152C190.845 41.5134 188.985 43.5814 187.639 46.2191C186.294 48.8569 185.621 51.8744 185.621 55.2718C185.621 58.6481 186.273 61.6551 187.576 64.2928C188.88 66.9095 190.741 68.9669 193.158 70.4652ZM209.021 48.3398C208.327 46.9049 207.339 45.7971 206.056 45.0163C204.774 44.2355 203.261 43.8451 201.515 43.8451C199.791 43.8451 198.288 44.2355 197.005 45.0163C195.744 45.7971 194.756 46.9049 194.041 48.3398C193.531 49.379 193.208 50.5608 193.073 51.885H209.988C209.853 50.5608 209.531 49.379 209.021 48.3398Z" fill="#D9D7E6"/>
</g>
<defs>
<clipPath id="clip0_1602_304">
<rect width="270" height="67.5" fill="white" transform="translate(4 15)"/>
</clipPath>
</defs>
</svg>
