<svg width="278" height="98" viewBox="0 0 278 98" fill="none" xmlns="http://www.w3.org/2000/svg">
<g clip-path="url(#clip0_1598_272)">
<path d="M143.056 36.4321C155.727 36.4321 164.746 46.0736 164.746 58.3177C164.746 70.7589 155.631 80.1811 143.056 80.1811C130.475 80.1811 121.365 70.8501 121.365 58.3177C121.365 45.9849 130.446 36.4321 143.056 36.4321ZM188.599 36.4321C201.27 36.4321 210.289 46.0736 210.289 58.3177C210.289 70.7589 201.169 80.1811 188.599 80.1811C176.019 80.1811 166.909 70.8501 166.909 58.3177C166.909 45.9849 175.99 36.4321 188.599 36.4321ZM261.874 36.4743C269.514 36.4743 276.819 41.0955 276.819 52.1834V78.9835H265.988V54.4536C265.988 50 263.803 46.6407 258.681 46.6407C253.893 46.6407 251.038 50.3376 251.038 54.7912V78.9862H239.957V54.4536C239.957 50 237.691 46.6407 232.65 46.6407C227.779 46.6407 224.923 50.2538 224.923 54.7912V78.9862H213.759V37.65H224.423V42.6925C226.689 38.6604 231.981 36.4743 236.514 36.4743C242.142 36.4743 246.675 38.9118 248.774 43.3629C252.046 38.3203 256.417 36.4743 261.874 36.4743ZM117.819 18.1598V78.9835H106.652V18.1598H117.819ZM188.599 46.4088C182.037 46.4088 176.697 51.752 176.697 58.3151C176.697 64.8786 182.037 70.2218 188.599 70.2218C195.161 70.2218 200.501 64.8786 200.501 58.3151C200.498 51.752 195.159 46.4088 188.599 46.4088ZM143.056 46.5493C136.567 46.5493 131.289 51.8283 131.289 58.3203C131.289 64.8119 136.567 70.0911 143.056 70.0911C149.544 70.0911 154.819 64.8119 154.819 58.3203C154.819 51.8283 149.544 46.5493 143.056 46.5493Z" fill="#D9D7E6"/>
<path d="M84.1453 43.9494H59.8324L80.8885 31.7926L76.2645 23.7812L55.2084 35.9379L67.3624 14.8835L59.3509 10.2567L47.1969 31.3111V7H37.9483V31.3134L25.7896 10.2567L17.7807 14.8812L29.9371 35.9356L8.88093 23.7812L4.25659 31.7903L25.3127 43.947H1V53.196H25.3104L4.25659 65.3527L8.88093 73.3641L29.9348 61.2097L17.7784 82.264L25.7896 86.8885L37.946 65.832V90.1453H47.1947V65.8341L59.3487 86.8885L67.3598 82.264L55.2035 61.2075L76.2596 73.3641L80.8841 65.3527L59.8302 53.1982H84.1404V43.9494H84.1453ZM42.5726 61.1514C35.5989 61.1514 29.9464 55.499 29.9464 48.525C29.9464 41.551 35.5989 35.8984 42.5726 35.8984C49.5464 35.8984 55.1987 41.551 55.1987 48.525C55.1987 55.499 49.5464 61.1514 42.5726 61.1514Z" fill="#D9D7E6"/>
</g>
<defs>
<clipPath id="clip0_1598_272">
<rect width="275.819" height="83.5" fill="white" transform="translate(1 7)"/>
</clipPath>
</defs>
</svg>
