<svg width="278" height="98" viewBox="0 0 278 98" fill="none" xmlns="http://www.w3.org/2000/svg">
<path d="M9.59777 62.843C8.60302 62.8452 7.62552 62.5832 6.76513 62.084C5.90474 61.5847 5.1923 60.866 4.7006 60.0012C4.21643 59.1426 3.97495 58.1684 4.00205 57.183C4.02915 56.1976 4.3238 55.2381 4.85444 54.4074L14.9394 38.5704C15.4555 37.7192 16.1884 37.0203 17.063 36.5451C17.9376 36.0699 18.9228 35.8353 19.9177 35.8654C20.9119 35.8892 21.8819 36.1767 22.7285 36.6986C23.5751 37.2204 24.2678 37.9578 24.7358 38.8353C25.676 40.613 25.5584 42.7519 24.4324 44.4206L14.3539 60.2576C13.8428 61.054 13.139 61.7086 12.3075 62.1605C11.4761 62.6125 10.5441 62.8472 9.59777 62.843Z" fill="#D9D7E6"/>
<path d="M26.8962 62.8425C24.8621 62.8425 22.9904 61.755 22.0076 60.0072C21.5245 59.1509 21.2836 58.1792 21.3107 57.1964C21.3378 56.2136 21.6318 55.2567 22.1614 54.4283L32.2271 38.6276C32.7357 37.7645 33.4659 37.0532 34.342 36.5674C35.2181 36.0816 36.2083 35.8391 37.2097 35.8649C39.2609 35.9098 41.1198 37.0572 42.0599 38.852C42.9936 40.6468 42.8568 42.7984 41.6967 44.4629L31.6331 60.2636C31.1236 61.0566 30.4226 61.7086 29.5947 62.1593C28.7668 62.61 27.8388 62.845 26.8962 62.8425Z" fill="#D9D7E6"/>
<path d="M43.8073 62.975C46.6747 62.975 48.9993 60.6992 48.9993 57.8919C48.9993 55.0845 46.6747 52.8087 43.8073 52.8087C40.9398 52.8087 38.6152 55.0845 38.6152 57.8919C38.6152 60.6992 40.9398 62.975 43.8073 62.975Z" fill="#D9D7E6"/>
<path d="M269.365 53.1036C270.933 53.1036 271.871 54.2189 271.871 56.0458V62.3063H274.001V55.9026C274.001 52.7959 272.537 50.9947 269.785 50.9947C268.709 50.9947 266.999 51.2896 265.98 53.2703C265.743 52.686 265.353 52.1769 264.85 51.7969C264.347 51.4169 263.75 51.1803 263.123 51.1122C262.729 51.04 262.327 51.0163 261.927 51.0417C261.051 51.1122 259.491 51.6571 258.908 52.8921V51.2319H256.775V62.3063H258.908V56.33C258.908 54.0053 260.429 53.1036 261.953 53.1036C263.38 53.1036 264.318 54.1954 264.318 56.0223V62.3063H266.437V56.33C266.437 54.4796 267.548 53.0822 269.365 53.1036ZM248.949 60.4559C249.923 60.4773 250.863 60.0884 251.545 59.3833C252.229 58.6782 252.592 57.7188 252.556 56.7338C252.556 54.5031 250.915 53.1036 248.949 53.1036C246.981 53.1036 245.342 54.5031 245.342 56.7338C245.304 57.7167 245.667 58.6739 246.347 59.3769C247.026 60.082 247.962 60.473 248.932 60.4559H248.949ZM248.949 62.5327C245.834 62.5327 243.233 60.2315 243.233 56.721C243.233 53.2104 245.834 50.9819 248.949 50.9819C252.064 50.9819 254.686 53.2104 254.686 56.721C254.686 60.2315 252.049 62.5434 248.934 62.5434L248.949 62.5327ZM232.262 56.721L232.24 56.7338C232.24 53.2233 234.909 50.9947 238.046 50.9819C238.834 50.9666 239.616 51.117 240.342 51.4232C241.068 51.7295 241.722 52.1847 242.261 52.7596L240.646 54.1356C240.303 53.7987 239.896 53.5331 239.45 53.3541C239.004 53.1752 238.527 53.0864 238.046 53.0929C236.08 53.0929 234.371 54.4924 234.371 56.721C234.371 58.2273 235.266 59.5841 236.64 60.161C238.014 60.7379 239.595 60.4174 240.646 59.3534L242.285 60.7294C241.744 61.3102 241.087 61.7708 240.357 62.0815C239.627 62.3922 238.839 62.5459 238.046 62.5327C234.933 62.5327 232.262 60.2315 232.262 56.721ZM225.44 60.1803C225.437 59.9867 225.473 59.7945 225.545 59.6148C225.617 59.435 225.724 59.2712 225.859 59.1327C225.995 58.9942 226.156 58.8838 226.334 58.8076C226.512 58.7314 226.703 58.6911 226.897 58.6889C227.09 58.6911 227.282 58.7314 227.46 58.8076C227.638 58.8838 227.799 58.9942 227.934 59.1327C228.07 59.2712 228.176 59.435 228.248 59.6148C228.32 59.7945 228.356 59.9867 228.354 60.1803C228.335 60.5552 228.174 60.9088 227.903 61.1689C227.632 61.429 227.272 61.5759 226.897 61.5798C226.521 61.5759 226.162 61.429 225.891 61.1689C225.62 60.9088 225.459 60.5552 225.44 60.1803Z" fill="#D9D7E6"/>
<path fill-rule="evenodd" clip-rule="evenodd" d="M231.267 37.1534H223.679L218.361 50.8644L213.071 37.1534H205.484L214.708 58.8192L208.971 73.1435H216.502L231.267 37.1534ZM185.124 49.2042C185.124 52.6656 188.149 54.9433 191.121 54.9433C194.042 54.9433 196.912 52.8237 196.912 49.2021C196.912 45.5804 194.042 43.4587 191.121 43.4587C188.149 43.4587 185.124 45.7406 185.124 49.2042ZM196.912 61.302V58.5607C195.373 60.8896 191.784 61.77 189.942 61.77C183.844 61.77 177.744 56.9624 177.744 49.2021C177.744 41.4438 183.842 36.6363 189.942 36.6363C191.478 36.6363 195.068 37.1491 196.912 39.8413V37.1619H203.984V61.3063L196.912 61.302ZM175.731 61.302H168.659V58.3021C167.477 60.5243 164.612 61.8191 161.638 61.8191C155.487 61.8191 150.053 56.9069 150.053 49.3003C150.053 41.5506 155.487 36.632 161.638 36.632C164.608 36.632 167.482 37.8713 168.659 40.0956V24H175.731V61.302ZM168.505 49.1486C168.505 45.5291 165.892 43.4074 162.971 43.4074C159.946 43.4074 157.433 45.683 157.433 49.1486C157.433 52.7254 159.946 54.9903 162.969 54.9903C165.945 54.9946 168.505 52.6143 168.505 49.1486ZM132.567 48.5247C132.567 44.8539 134.464 43.6125 136.975 43.6125C139.383 43.6125 141.126 45.215 141.126 48.42V61.2978H148.25V46.8709C148.25 39.9951 144.865 36.632 139.483 36.632C136.665 36.632 133.847 38.2345 132.565 40.666V37.1534H125.446V61.2978H132.567V48.5247ZM110.98 61.7123C104.216 61.7123 98.573 56.7488 98.573 49.1465C98.573 41.5399 104.209 36.6256 110.98 36.6256C117.751 36.6256 123.437 41.5399 123.437 49.1465C123.437 56.7531 117.745 61.7123 110.98 61.7123ZM110.98 54.6826C113.95 54.6826 116.414 52.5075 116.414 49.1486C116.414 45.8902 113.953 43.6659 110.98 43.6659C110.265 43.6547 109.554 43.7893 108.893 44.0615C108.231 44.3337 107.631 44.7378 107.13 45.2492C106.627 45.7633 106.231 46.3735 105.968 47.0433C105.705 47.7132 105.579 48.4292 105.598 49.1486C105.6 52.5118 108.06 54.6826 110.98 54.6826ZM85.8024 43.6147C87.9027 43.6147 89.7487 45.2706 89.7487 48.4222V61.302H96.821V47.5889C96.821 40.2985 93.2763 36.6277 87.595 36.6277C85.9071 36.6277 82.7278 37.1405 80.4202 40.9182C79.0869 38.1255 76.5251 36.6769 72.739 36.6769C71.4245 36.6702 70.1359 37.0422 69.0272 37.7485C67.9185 38.4548 67.0367 39.4655 66.4872 40.6596V37.1555H59.3594V61.2999H66.4808V48.5247C66.4808 44.8539 68.4807 43.6125 70.6323 43.6125C72.6834 43.6125 74.5252 45.215 74.5786 48.2662V61.2999H81.7022V48.5247C81.7022 45.0142 83.5482 43.6147 85.8024 43.6147Z" fill="#D9D7E6"/>
</svg>
