<svg width="278" height="98" viewBox="0 0 278 98" fill="none" xmlns="http://www.w3.org/2000/svg">
<path fill-rule="evenodd" clip-rule="evenodd" d="M158.983 39.0023C163.216 39.0023 166.462 41.1424 167.812 43.1019V27.4677C167.812 27.3172 167.856 27.1701 167.939 27.0445C168.022 26.9189 168.14 26.8203 168.278 26.761C168.37 26.7221 168.469 26.7018 168.568 26.7014H175.457C175.608 26.7011 175.755 26.7459 175.879 26.8302C176.004 26.9144 176.1 27.0342 176.156 27.1739C176.194 27.2673 176.212 27.3671 176.212 27.4677V69.5361C176.211 69.7366 176.131 69.9288 175.99 70.0713C175.849 70.2138 175.658 70.2954 175.457 70.2985H168.797C168.667 70.2987 168.538 70.2732 168.418 70.2233C168.297 70.1734 168.188 70.1002 168.097 70.0079C168.005 69.9155 167.933 69.8059 167.884 69.6854C167.835 69.5649 167.811 69.4359 167.812 69.3058V66.8679C166.466 68.8294 163.216 70.9735 158.983 70.9735C150.83 70.9735 144.576 63.6676 144.576 54.978C144.576 46.2844 150.83 39.0023 158.983 39.0023ZM153.035 54.978C153.035 59.7526 156.162 63.3023 160.762 63.3023C165.366 63.3023 168.487 59.7526 168.487 54.978C168.487 50.2013 165.362 46.6516 160.762 46.6516C156.162 46.6516 153.035 50.2013 153.035 54.978ZM132.722 57.9162V47.7833C132.722 47.5808 132.801 47.3862 132.944 47.2433C133.014 47.1725 133.097 47.1163 133.189 47.0778C133.28 47.0393 133.379 47.0193 133.478 47.0189H139.378C139.478 47.0189 139.577 46.9992 139.669 46.9609C139.76 46.9226 139.844 46.8665 139.914 46.7959C139.984 46.7252 140.04 46.6413 140.077 46.5491C140.115 46.4569 140.134 46.3581 140.133 46.2586V40.4357C140.132 40.2352 140.052 40.0431 139.911 39.9005C139.77 39.758 139.579 39.6764 139.378 39.6733H133.478C133.378 39.6733 133.28 39.6536 133.188 39.6152C133.096 39.5767 133.012 39.5205 132.942 39.4496C132.872 39.3787 132.816 39.2946 132.779 39.2021C132.741 39.1097 132.723 39.0107 132.724 38.911V31.9227C132.722 31.7221 132.641 31.5302 132.499 31.3881C132.358 31.246 132.166 31.165 131.965 31.1624H125.076C124.926 31.162 124.779 31.2069 124.654 31.2911C124.53 31.3754 124.433 31.4952 124.378 31.6349C124.34 31.7276 124.321 31.8267 124.322 31.9267C124.322 39.2207 124.133 39.6455 119.111 39.6694C118.982 39.6698 118.854 39.6956 118.735 39.7453C118.616 39.7951 118.509 39.8677 118.418 39.9592C118.234 40.1446 118.13 40.3948 118.128 40.6561V46.0302C118.128 46.2253 118.186 46.416 118.294 46.5784C118.402 46.7408 118.556 46.8678 118.735 46.9435C118.854 46.9925 118.982 47.0175 119.111 47.0169H123.566C123.666 47.0169 123.764 47.0368 123.857 47.0753C123.949 47.1138 124.032 47.1703 124.103 47.2414C124.173 47.3125 124.228 47.3968 124.265 47.4895C124.303 47.5822 124.321 47.6814 124.32 47.7813V59.566C124.32 67.0525 129.533 70.6479 136.033 70.6479C137.635 70.6833 139.236 70.5118 140.794 70.1377C140.958 70.0967 141.104 70.0015 141.208 69.8675C141.312 69.7336 141.367 69.5686 141.366 69.3991V63.5882C141.364 63.4143 141.304 63.2461 141.194 63.1112C141.084 62.9762 140.932 62.8826 140.762 62.8457C140.649 62.8219 140.532 62.8246 140.421 62.8536C139.605 63.0387 138.77 63.1267 137.933 63.1157C134.316 63.1157 132.722 61.6505 132.722 57.9162ZM51.0865 54.978C51.0865 45.9171 57.8961 39.0023 67.217 39.0023C75.2535 39.0023 82.2993 44.1442 82.3132 54.0786C82.3132 54.6663 82.3132 55.3373 82.2497 56.2386C82.2363 56.4313 82.1512 56.612 82.0112 56.745C81.8712 56.8781 81.6864 56.9538 81.4933 56.9573H59.258C59.7483 61.0589 63.3616 63.3222 67.4136 63.3222C70.8541 63.3222 73.4429 61.865 74.9041 60.0444C75.0252 59.8986 75.1974 59.8045 75.3855 59.7812C75.5737 59.758 75.7636 59.8074 75.9166 59.9194L80.9572 63.6616C81.0795 63.7512 81.1722 63.8751 81.2235 64.0177C81.2747 64.1602 81.2823 64.3149 81.2451 64.4617C81.2209 64.5592 81.1777 64.6509 81.118 64.7317C78.2334 68.4879 73.4508 70.9735 67.3401 70.9735C58.2018 70.9735 51.0865 64.6483 51.0865 54.978ZM66.9768 45.927C63.84 45.927 60.3479 47.5093 59.5518 51.2536H73.9055C73.1709 47.6284 70.1136 45.927 66.9768 45.927ZM106.272 39.6753H114.372C114.51 39.6742 114.646 39.7113 114.764 39.7824C114.882 39.8535 114.979 39.9559 115.043 40.0783C115.107 40.2005 115.138 40.3379 115.131 40.4759C115.124 40.6139 115.08 40.7475 115.003 40.8625L105.664 54.8449C105.575 54.9729 105.528 55.125 105.528 55.2807C105.528 55.4365 105.575 55.5885 105.664 55.7165L115.2 69.0736C115.28 69.1876 115.328 69.3214 115.338 69.4608C115.349 69.6001 115.32 69.7395 115.257 69.864C115.194 69.9885 115.098 70.0932 114.979 70.167C114.86 70.2408 114.724 70.2808 114.584 70.2826H106.484C106.364 70.2822 106.245 70.2528 106.138 70.1968C106.031 70.1408 105.94 70.0599 105.871 69.961L99.6944 61.2217L93.5202 69.961C93.4508 70.0595 93.359 70.14 93.2523 70.1959C93.1456 70.2518 93.0272 70.2816 92.9067 70.2826H84.7432C84.603 70.2831 84.4654 70.2443 84.3461 70.1706C84.2268 70.0969 84.1305 69.9913 84.0682 69.8657C84.005 69.7408 83.9772 69.6009 83.9876 69.4613C83.9981 69.3217 84.0466 69.1876 84.1277 69.0736L93.677 55.7165C93.7649 55.5878 93.812 55.4356 93.812 55.2797C93.812 55.1239 93.7649 54.9716 93.677 54.843L84.3342 40.8625C84.2771 40.7767 84.238 40.6802 84.219 40.5789C84.2001 40.4776 84.2018 40.3735 84.2241 40.2729C84.2463 40.1722 84.2886 40.0771 84.3485 39.9932C84.4084 39.9093 84.4845 39.8383 84.5724 39.7845C84.6897 39.7132 84.8243 39.6754 84.9616 39.6753H92.9941C93.119 39.6749 93.242 39.7057 93.3519 39.765C93.4618 39.8243 93.5552 39.9102 93.6234 40.0148L99.6329 49.0419L105.646 40.0148C105.715 39.911 105.808 39.8257 105.917 39.7665C106.027 39.7072 106.147 39.6759 106.272 39.6753ZM268.18 39.308C264.748 39.308 261.621 41.5713 260.577 44.573V40.4377C260.577 40.3379 260.558 40.239 260.52 40.1467C260.483 40.0543 260.427 39.9704 260.357 39.8995C260.286 39.8287 260.203 39.7725 260.111 39.734C260.019 39.6955 259.92 39.6756 259.82 39.6753H252.935C252.835 39.6748 252.736 39.6942 252.644 39.7323C252.551 39.7705 252.467 39.8267 252.396 39.8977C252.326 39.9686 252.27 40.0529 252.232 40.1456C252.195 40.2383 252.176 40.3376 252.177 40.4377V69.5163C252.177 69.7178 252.257 69.9111 252.399 70.0539C252.541 70.1968 252.734 70.2776 252.935 70.2786H259.82C259.92 70.2784 260.019 70.2584 260.111 70.22C260.203 70.1815 260.286 70.1252 260.357 70.0544C260.427 69.9836 260.483 69.8996 260.52 69.8073C260.558 69.7149 260.577 69.616 260.577 69.5163V55.647C260.577 50.6282 263.217 47.5073 267.202 47.5073C268.167 47.5073 269.125 47.6363 270.055 47.8905C270.223 47.9369 270.402 47.9225 270.561 47.8499C270.72 47.7773 270.849 47.6511 270.924 47.4934C270.975 47.3894 271.002 47.2755 271.003 47.1599V40.2649C271.004 40.0887 270.943 39.9179 270.832 39.7814C270.72 39.645 270.565 39.5514 270.392 39.5165C269.665 39.3661 268.923 39.2962 268.18 39.308ZM180.385 54.978C180.385 46.0402 187.617 39.0023 196.509 39.0023C205.399 39.0023 212.636 46.0223 212.636 54.978C212.636 63.9316 205.403 70.9735 196.509 70.9735C187.615 70.9735 180.385 63.9138 180.385 54.978ZM188.844 54.978C188.844 59.6911 192.096 63.1177 196.509 63.1177C200.925 63.1177 204.111 59.6911 204.111 54.978C204.111 50.2629 200.925 46.8363 196.509 46.8363C192.094 46.8363 188.846 50.2629 188.846 54.976L188.844 54.978ZM231.883 39.0023C222.993 39.0023 215.757 46.0402 215.757 54.978C215.757 63.9138 222.993 70.9735 231.883 70.9735C240.773 70.9735 248.01 63.9316 248.01 54.978C248.01 46.0243 240.773 39.0023 231.883 39.0023ZM231.883 63.1177C227.468 63.1177 224.218 59.6911 224.218 54.978C224.218 50.2629 227.468 46.8363 231.883 46.8363C236.299 46.8363 239.487 50.2629 239.487 54.976C239.487 59.6911 236.299 63.1177 231.883 63.1177ZM18.2795 45.2461C20.9795 41.2437 25.7958 38.6311 31.442 38.6311C40.1773 38.6311 46.9194 44.8847 46.9194 52.8398V69.5163C46.9189 69.7169 46.8395 69.9094 46.6983 70.052C46.5572 70.1946 46.3656 70.276 46.165 70.2786H39.2164C39.1167 70.2786 39.0179 70.2589 38.9259 70.2205C38.8338 70.182 38.7503 70.1258 38.6801 70.0549C38.61 69.984 38.5546 69.8999 38.5171 69.8074C38.4797 69.715 38.461 69.616 38.462 69.5163V54.0012C38.462 50.5527 35.8295 46.6417 31.442 46.6417C26.8441 46.6417 24.422 50.5527 24.422 54.0012V69.5123C24.4205 69.7137 24.3399 69.9064 24.1977 70.049C24.0555 70.1915 23.863 70.2726 23.6616 70.2747H16.7171C16.5673 70.2758 16.4206 70.2319 16.296 70.1487C16.1714 70.0655 16.0747 69.9469 16.0183 69.8081C15.9801 69.7155 15.9606 69.6164 15.9607 69.5163V54.5015C15.958 54.2823 15.8835 54.0701 15.7487 53.8973C15.6139 53.7244 15.4261 53.6006 15.2142 53.5446C9.10546 51.871 6.85612 47.1976 6.69929 40.5072C6.69728 40.3549 6.74056 40.2055 6.82363 40.0779C6.9067 39.9503 7.0258 39.8503 7.16583 39.7905C7.25877 39.751 7.3587 39.7308 7.45965 39.7309H12.9391V39.7706H14.5968C14.7932 39.772 14.9815 39.8492 15.1224 39.986C15.2634 40.1229 15.346 40.3089 15.3532 40.5052C15.4326 43.2409 15.9766 44.71 17.267 45.4922C17.435 45.5901 17.6345 45.6189 17.8234 45.5726C18.0123 45.5264 18.1758 45.4086 18.2795 45.2441V45.2461Z" fill="#D9D7E6"/>
</svg>
