<svg width="278" height="98" viewBox="0 0 278 98" fill="none" xmlns="http://www.w3.org/2000/svg">
<path d="M222.473 23.2559L211.158 45.5929L199.836 23.2559H183.197L211.158 78.4372L239.1 23.2559H222.473ZM130.509 42.7601C130.509 41.0824 129.912 39.8291 128.725 39.0203C127.544 38.2032 125.929 37.7976 123.907 37.7976H116.334V47.9595H123.83C125.909 47.9595 127.544 47.5142 128.725 46.624C129.912 45.733 130.509 44.4912 130.509 42.9101V42.7601ZM172.246 20L200.201 75.1807H183.56L172.246 52.8413L160.941 75.1807H149.647H144.309H129.839L120.042 60.3454H119.901H116.334V75.1807H98.9719V23.2559H124.352C129 23.2559 132.821 23.7887 135.81 24.8516C138.809 25.9131 141.213 27.3633 143.045 29.1933C144.631 30.7713 145.817 32.5564 146.612 34.5273C147.399 36.5064 147.798 38.8384 147.798 41.4979V41.6553C147.798 45.4599 146.883 48.6753 145.048 51.2945C143.222 53.915 140.726 55.999 137.553 57.527L146.577 70.7005L172.246 20ZM250.048 20L222.097 75.1807H238.736L250.048 52.8413L261.365 75.1807H278L250.048 20ZM48.5926 37.9353H63.8769V75.1807H81.2431V37.9353H96.531V23.2559H48.5926V37.9353ZM47.9672 51.7388C49.028 53.5681 49.5606 55.7974 49.5606 58.4135V58.5656C49.5606 61.2827 49.0204 63.7359 47.9269 65.909C46.8411 68.0876 45.3042 69.9273 43.3273 71.4385C41.3459 72.9435 38.9453 74.1054 36.1284 74.9226C33.3123 75.7436 30.1409 76.1531 26.6347 76.1531C21.345 76.1531 16.4066 75.4173 11.8306 73.9624C7.25536 72.4999 3.313 70.3109 0 67.3996L9.27242 56.3506C12.0893 58.5222 15.063 60.0821 18.1734 61.0202C21.2885 61.9606 24.3831 62.4302 27.4495 62.4302C29.0353 62.4302 30.169 62.2308 30.863 61.8396C31.5615 61.4425 31.9001 60.8971 31.9001 60.2075V60.0608C31.9001 59.312 31.3872 58.6866 30.379 58.2004C29.3709 57.7058 27.4701 57.1898 24.702 56.6465C21.7846 56.0493 19.0005 55.3539 16.3579 54.5648C13.7107 53.7794 11.3869 52.7614 9.38501 51.5228C7.38003 50.2893 5.78664 48.7256 4.59589 46.8484C3.40961 44.9675 2.81687 42.6658 2.81687 39.9487V39.7987C2.81687 37.3235 3.29702 35.0219 4.26572 32.8973C5.22136 30.7713 6.63359 28.9132 8.48936 27.3352C10.3461 25.7518 12.6501 24.5176 15.3976 23.6211C18.1331 22.7317 21.2885 22.2874 24.8549 22.2874C29.8951 22.2874 34.309 22.8823 38.0938 24.0733C41.8786 25.251 45.276 27.0347 48.2975 29.407L39.8409 41.1326C37.3678 39.3468 34.7573 38.0495 32.0134 37.2314C29.2612 36.4134 26.6871 36.0042 24.2584 36.0042C22.9748 36.0042 22.0228 36.2019 21.4057 36.5991C20.7766 36.9949 20.4774 37.5167 20.4774 38.1566V38.3043C20.4774 39.002 20.9415 39.5955 21.8859 40.0917C22.8302 40.5831 24.6578 41.1044 27.3735 41.6492C30.6894 42.2381 33.7042 42.958 36.4313 43.7935C39.1469 44.6433 41.4904 45.7139 43.4399 47.028C45.3932 48.3391 46.9058 49.9019 47.9672 51.7388Z" fill="#D9D7E6"/>
</svg>
