<svg width="278" height="98" viewBox="0 0 278 98" fill="none" xmlns="http://www.w3.org/2000/svg">
<g clip-path="url(#clip0_2175_580)">
<g clip-path="url(#clip1_2175_580)">
<path d="M28.1405 61.8891L38.4901 39.9771H47.1512L57.5009 61.8891L67.8504 39.9771H83.9714L62.4767 80.4052H53.0119L42.8248 58.2647L32.6375 80.4052H23.1727L1.66992 39.9771H17.872L28.1405 61.8891ZM126.79 80.4052H112.187V75.9141H112.025C109.459 79.9324 104.403 81.7446 99.5891 81.7446C87.3969 81.7446 78.8087 71.738 78.8087 60.1556C78.8087 48.5732 87.2346 38.6454 99.4268 38.6454C104.159 38.6454 109.135 40.3789 112.179 43.9245V39.9849H126.782V80.413L126.79 80.4052ZM93.8989 60.2344C93.8989 65.3559 97.3487 69.2956 103.282 69.2956C109.216 69.2956 112.666 65.3559 112.666 60.2344C112.666 55.1129 109.224 51.0867 103.282 51.0867C97.3406 51.0867 93.8989 55.2706 93.8989 60.2344ZM143.732 15V45.1064H143.894C147.262 40.6941 151.354 38.6454 157.052 38.6454C167.482 38.6454 172.532 45.4216 172.532 55.6724V80.413H157.936V59.6908C157.936 54.9632 157.214 50.0782 151.362 50.0782C145.508 50.0782 143.74 54.9632 143.74 59.6908V80.413H129.136V15H143.74H143.732ZM223.881 60.2344C223.881 73.9443 212.322 81.7446 199.091 81.7446C185.86 81.7446 174.301 74.023 174.301 60.2344C174.301 46.4459 185.852 38.6454 199.091 38.6454C212.33 38.6454 223.881 46.4459 223.881 60.2344ZM189.707 60.2344C189.707 65.3559 193.157 69.2956 199.099 69.2956C205.041 69.2956 208.483 65.3559 208.483 60.2344C208.483 55.1129 205.033 51.0867 199.099 51.0867C193.165 51.0867 189.707 55.2706 189.707 60.2344ZM275.394 60.2344C275.394 73.9443 263.843 81.7446 250.603 81.7446C237.364 81.7446 225.814 74.023 225.814 60.2344C225.814 46.4459 237.364 38.6454 250.603 38.6454C263.843 38.6454 275.394 46.4459 275.394 60.2344ZM241.22 60.2344C241.22 65.3559 244.67 69.2956 250.603 69.2956C256.537 69.2956 259.995 65.3559 259.995 60.2344C259.995 55.1129 256.545 51.0867 250.603 51.0867C244.662 51.0867 241.22 55.2706 241.22 60.2344Z" fill="#D9D7E6"/>
</g>
</g>
<defs>
<clipPath id="clip0_2175_580">
<rect width="278" height="98" fill="white"/>
</clipPath>
<clipPath id="clip1_2175_580">
<rect width="280" height="67.4074" fill="white" transform="translate(-1 15)"/>
</clipPath>
</defs>
</svg>
